HIERARCHY
ROOT Hips
{
	OFFSET -1.708771 99.123062 53.422287
	CHANNELS 6 Xposition Yposition Zposition Xrotation Yrotation Zrotation
	JOINT LeftUpLeg
	{
		OFFSET 8.910001 -6.269997 0.000000
		CHANNELS 6 Xposition Yposition Zposition Xrotation Yrotation Zrotation
		JOINT LeftLeg
		{
			OFFSET 5.198202 -44.464111 -3.164574
			CHANNELS 6 Xposition Yposition Zposition Xrotation Yrotation Zrotation
			JOINT LeftFoot
			{
				OFFSET 4.712270 -40.290306 -3.324795
				CHANNELS 6 Xposition Yposition Zposition Xrotation Yrotation Zrotation
				JOINT LeftToeBase
				{
					OFFSET 0.000008 -6.262319 12.954720
					CHANNELS 6 Xposition Yposition Zposition Xrotation Yrotation Zrotation
					JOINT LeftToeBaseEnd
					{
						OFFSET 0.000000 0.000000 7.999996
						CHANNELS 6 Xposition Yposition Zposition Xrotation Yrotation Zrotation
						End Site
						{
							OFFSET 0.000000 8.000001 0.000000
						}
					}
				}
			}
		}
	}
	JOINT RightUpLeg
	{
		OFFSET -8.910001 -6.269997 0.000000
		CHANNELS 6 Xposition Yposition Zposition Xrotation Yrotation Zrotation
		JOINT RightLeg
		{
			OFFSET -0.684916 -44.661736 -4.353573
			CHANNELS 6 Xposition Yposition Zposition Xrotation Yrotation Zrotation
			JOINT RightFoot
			{
				OFFSET -0.620998 -40.495686 -4.035122
				CHANNELS 6 Xposition Yposition Zposition Xrotation Yrotation Zrotation
				JOINT RightToeBase
				{
					OFFSET -0.001086 -6.262318 12.954750
					CHANNELS 6 Xposition Yposition Zposition Xrotation Yrotation Zrotation
					JOINT RightToeBaseEnd
					{
						OFFSET -0.000670 -0.000406 8.000000
						CHANNELS 6 Xposition Yposition Zposition Xrotation Yrotation Zrotation
						End Site
						{
							OFFSET 0.000000 8.000002 0.000404
						}
					}
				}
			}
		}
	}
	JOINT Spine
	{
		OFFSET 0.000000 7.000000 0.000000
		CHANNELS 6 Xposition Yposition Zposition Xrotation Yrotation Zrotation
		JOINT Spine1
		{
			OFFSET 0.061653 12.513191 -1.964828
			CHANNELS 3 Xrotation Yrotation Zrotation
			JOINT Spine2
			{
				OFFSET 0.031167 12.627617 -0.993256
				CHANNELS 3 Xrotation Yrotation Zrotation
				JOINT LeftShoulder
				{
					OFFSET 7.000558 14.254959 -0.017727
					CHANNELS 6 Xposition Yposition Zposition Xrotation Yrotation Zrotation
					JOINT LeftArm
					{
						OFFSET 10.707251 -0.000275 0.000000
						CHANNELS 6 Xposition Yposition Zposition Xrotation Yrotation Zrotation
						JOINT LeftForeArm
						{
							OFFSET 27.305470 -0.001083 0.000008
							CHANNELS 6 Xposition Yposition Zposition Xrotation Yrotation Zrotation
							JOINT LeftHand
							{
								OFFSET 26.697147 -0.001038 -0.000004
								CHANNELS 6 Xposition Yposition Zposition Xrotation Yrotation Zrotation
								JOINT LeftHandThumb1
								{
									OFFSET 4.348732 -0.793335 4.283424
									CHANNELS 6 Xposition Yposition Zposition Xrotation Yrotation Zrotation
									JOINT LeftHandThumb2
									{
										OFFSET 2.512566 -0.535324 0.708122
										CHANNELS 6 Xposition Yposition Zposition Xrotation Yrotation Zrotation
										JOINT LeftHandThumb3
										{
											OFFSET 2.543137 -0.000107 0.000011
											CHANNELS 6 Xposition Yposition Zposition Xrotation Yrotation Zrotation
											JOINT LeftHandThumb4
											{
												OFFSET 2.666748 -0.000092 -0.000008
												CHANNELS 6 Xposition Yposition Zposition Xrotation Yrotation Zrotation
												End Site
												{
													OFFSET 0.000092 2.666748 -0.003315
												}
											}
										}
									}
								}
								JOINT LeftHandIndex1
								{
									OFFSET 8.821983 0.203705 3.471420
									CHANNELS 6 Xposition Yposition Zposition Xrotation Yrotation Zrotation
									JOINT LeftHandIndex2
									{
										OFFSET 4.225319 -0.000168 -0.000263
										CHANNELS 6 Xposition Yposition Zposition Xrotation Yrotation Zrotation
										JOINT LeftHandIndex3
										{
											OFFSET 2.652321 -0.000214 -0.092785
											CHANNELS 6 Xposition Yposition Zposition Xrotation Yrotation Zrotation
											JOINT LeftHandIndex4
											{
												OFFSET 1.953438 -0.000229 -0.136719
												CHANNELS 6 Xposition Yposition Zposition Xrotation Yrotation Zrotation
												End Site
												{
													OFFSET 0.000046 1.958221 -0.002434
												}
											}
										}
									}
								}
								JOINT LeftHandMiddle1
								{
									OFFSET 8.809906 0.502182 1.304062
									CHANNELS 6 Xposition Yposition Zposition Xrotation Yrotation Zrotation
									JOINT LeftHandMiddle2
									{
										OFFSET 4.863251 -0.000183 0.000000
										CHANNELS 6 Xposition Yposition Zposition Xrotation Yrotation Zrotation
										JOINT LeftHandMiddle3
										{
											OFFSET 2.765236 -0.000107 -0.000172
											CHANNELS 6 Xposition Yposition Zposition Xrotation Yrotation Zrotation
											JOINT LeftHandMiddle4
											{
												OFFSET 2.005630 -0.000076 -0.000252
												CHANNELS 6 Xposition Yposition Zposition Xrotation Yrotation Zrotation
												End Site
												{
													OFFSET 0.000076 2.005630 -0.002495
												}
											}
										}
									}
								}
								JOINT LeftHandRing1
								{
									OFFSET 8.893776 0.378601 -0.793629
									CHANNELS 6 Xposition Yposition Zposition Xrotation Yrotation Zrotation
									JOINT LeftHandRing2
									{
										OFFSET 4.537758 -0.000183 -0.000282
										CHANNELS 6 Xposition Yposition Zposition Xrotation Yrotation Zrotation
										JOINT LeftHandRing3
										{
											OFFSET 2.304527 -0.000092 -0.000286
											CHANNELS 6 Xposition Yposition Zposition Xrotation Yrotation Zrotation
											JOINT LeftHandRing4
											{
												OFFSET 1.923347 -0.000076 -0.000359
												CHANNELS 6 Xposition Yposition Zposition Xrotation Yrotation Zrotation
												End Site
												{
													OFFSET 0.000076 1.923340 -0.002392
												}
											}
										}
									}
								}
								JOINT LeftHandPinky1
								{
									OFFSET 8.882271 -0.316467 -2.489964
									CHANNELS 6 Xposition Yposition Zposition Xrotation Yrotation Zrotation
									JOINT LeftHandPinky2
									{
										OFFSET 3.044098 -0.000122 0.000000
										CHANNELS 6 Xposition Yposition Zposition Xrotation Yrotation Zrotation
										JOINT LeftHandPinky3
										{
											OFFSET 1.974503 -0.000107 0.000000
											CHANNELS 6 Xposition Yposition Zposition Xrotation Yrotation Zrotation
											JOINT LeftHandPinky4
											{
												OFFSET 1.666611 -0.000107 0.000000
												CHANNELS 6 Xposition Yposition Zposition Xrotation Yrotation Zrotation
												End Site
												{
													OFFSET 0.000130 1.666611 -0.002071
												}
											}
										}
									}
								}
							}
						}
					}
				}
				JOINT RightShoulder
				{
					OFFSET -6.999445 14.255493 -0.017727
					CHANNELS 6 Xposition Yposition Zposition Xrotation Yrotation Zrotation
					JOINT RightArm
					{
						OFFSET -10.707278 0.000839 0.000000
						CHANNELS 6 Xposition Yposition Zposition Xrotation Yrotation Zrotation
						JOINT RightForeArm
						{
							OFFSET -27.305599 0.001068 0.000000
							CHANNELS 6 Xposition Yposition Zposition Xrotation Yrotation Zrotation
							JOINT RightHand
							{
								OFFSET -26.696999 0.001038 -0.000004
								CHANNELS 6 Xposition Yposition Zposition Xrotation Yrotation Zrotation
								JOINT RightHandThumb1
								{
									OFFSET -4.348412 -0.793015 4.283806
									CHANNELS 6 Xposition Yposition Zposition Xrotation Yrotation Zrotation
									JOINT RightHandThumb2
									{
										OFFSET -2.512550 -0.535110 0.708344
										CHANNELS 6 Xposition Yposition Zposition Xrotation Yrotation Zrotation
										JOINT RightHandThumb3
										{
											OFFSET -2.541588 0.000214 0.088821
											CHANNELS 6 Xposition Yposition Zposition Xrotation Yrotation Zrotation
											JOINT RightHandThumb4
											{
												OFFSET -2.665123 0.000183 0.093136
												CHANNELS 6 Xposition Yposition Zposition Xrotation Yrotation Zrotation
												End Site
												{
													OFFSET 0.000061 2.666748 -0.003315
												}
											}
										}
									}
								}
								JOINT RightHandIndex1
								{
									OFFSET -8.821663 0.204391 3.472195
									CHANNELS 6 Xposition Yposition Zposition Xrotation Yrotation Zrotation
									JOINT RightHandIndex2
									{
										OFFSET -4.225319 0.000168 0.000114
										CHANNELS 6 Xposition Yposition Zposition Xrotation Yrotation Zrotation
										JOINT RightHandIndex3
										{
											OFFSET -2.652321 0.000214 0.092697
											CHANNELS 6 Xposition Yposition Zposition Xrotation Yrotation Zrotation
											JOINT RightHandIndex4
											{
												OFFSET -1.953445 0.000244 0.136658
												CHANNELS 6 Xposition Yposition Zposition Xrotation Yrotation Zrotation
												End Site
												{
													OFFSET 0.000076 1.958221 -0.002434
												}
											}
										}
									}
								}
								JOINT RightHandMiddle1
								{
									OFFSET -8.809753 0.502853 1.304836
									CHANNELS 6 Xposition Yposition Zposition Xrotation Yrotation Zrotation
									JOINT RightHandMiddle2
									{
										OFFSET -4.863251 0.000183 0.000134
										CHANNELS 6 Xposition Yposition Zposition Xrotation Yrotation Zrotation
										JOINT RightHandMiddle3
										{
											OFFSET -2.763550 0.000229 0.096584
											CHANNELS 6 Xposition Yposition Zposition Xrotation Yrotation Zrotation
											JOINT RightHandMiddle4
											{
												OFFSET -2.000740 0.000244 0.139965
												CHANNELS 6 Xposition Yposition Zposition Xrotation Yrotation Zrotation
												End Site
												{
													OFFSET 0.000076 2.005630 -0.002495
												}
											}
										}
									}
								}
								JOINT RightHandRing1
								{
									OFFSET -8.893814 0.379272 -0.792850
									CHANNELS 6 Xposition Yposition Zposition Xrotation Yrotation Zrotation
									JOINT RightHandRing2
									{
										OFFSET -4.537766 0.000183 0.000122
										CHANNELS 6 Xposition Yposition Zposition Xrotation Yrotation Zrotation
										JOINT RightHandRing3
										{
											OFFSET -2.303116 0.000183 0.080490
											CHANNELS 6 Xposition Yposition Zposition Xrotation Yrotation Zrotation
											JOINT RightHandRing4
											{
												OFFSET -1.918663 0.000244 0.134224
												CHANNELS 6 Xposition Yposition Zposition Xrotation Yrotation Zrotation
												End Site
												{
													OFFSET 0.000076 1.923355 -0.002392
												}
											}
										}
									}
								}
								JOINT RightHandPinky1
								{
									OFFSET -8.882507 -0.315781 -2.489185
									CHANNELS 6 Xposition Yposition Zposition Xrotation Yrotation Zrotation
									JOINT RightHandPinky2
									{
										OFFSET -3.047798 0.000122 0.000084
										CHANNELS 6 Xposition Yposition Zposition Xrotation Yrotation Zrotation
										JOINT RightHandPinky3
										{
											OFFSET -1.975693 0.000168 0.069050
											CHANNELS 6 Xposition Yposition Zposition Xrotation Yrotation Zrotation
											JOINT RightHandPinky4
											{
												OFFSET -1.664574 0.000244 0.116447
												CHANNELS 6 Xposition Yposition Zposition Xrotation Yrotation Zrotation
												End Site
												{
													OFFSET 0.000130 1.668640 -0.002083
												}
											}
										}
									}
								}
							}
						}
					}
				}
				JOINT Neck
				{
					OFFSET 0.000494 12.666672 -0.015751
					CHANNELS 6 Xposition Yposition Zposition Xrotation Yrotation Zrotation
					JOINT Head
					{
						OFFSET 0.000390 10.000000 -0.012436
						CHANNELS 3 Xrotation Yrotation Zrotation
						JOINT HeadEnd
						{
							OFFSET 0.000780 19.999985 -0.024872
							CHANNELS 3 Xrotation Yrotation Zrotation
							End Site
							{
								OFFSET 0.000780 19.999985 -0.024872
							}
						}
					}
				}
			}
		}
	}
}
MOTION
Frames: 3
Frame Time: 0.008333
6.848508 93.628464 43.812408 -170.651935 104.013310 164.089202 8.909997 -6.269989 -0.000002 -31.890310 -3.331251 1.597702 5.198208 -44.464115 -3.164567 46.434368 8.917111 -5.715034 4.712267 -40.290306 -3.324795 -17.768399 -15.862802 3.849627 0.000012 -6.262319 12.954714 -3.935972 -0.022605 0.132265 -0.000005 0.000000 7.999988 -0.000000 0.000000 -0.000000 -8.910005 -6.270012 -0.000002 -22.614709 26.565932 -7.472148 -0.684920 -44.661736 -4.353562 26.440277 1.494563 17.939555 -0.620993 -40.495697 -4.035121 -9.533921 -0.278215 7.926627 -0.001081 -6.262319 12.954752 -1.324111 0.113294 -1.235269 -0.000664 -0.000406 7.999992 0.000000 -0.000000 -0.000000 -0.000003 6.999981 -0.000006 16.405110 -0.178464 -0.871750 0.172409 -0.062557 -0.230725 0.172825 -0.012010 -0.236043 7.000552 14.254975 -0.017730 9.324308 -13.365400 0.582349 10.707251 -0.000270 0.000008 -26.676043 -25.682054 -70.019910 27.305473 -0.001094 0.000001 0.104379 -21.793592 -0.176232 26.697166 -0.001028 -0.000004 36.706963 -3.041839 -6.906730 4.348738 -0.793360 4.283430 -21.229807 6.714480 23.658619 2.512563 -0.535326 0.708121 2.711393 4.522218 0.624098 2.543125 -0.000124 -0.000003 0.000002 -0.000001 0.000004 2.666744 -0.000105 -0.000014 -0.000001 0.000001 -0.000001 8.821987 0.203714 3.471426 -0.337949 0.148148 10.428683 4.225309 -0.000182 -0.000259 -0.047390 -0.099199 0.000071 2.652313 -0.000202 -0.092784 0.000008 -0.000001 0.000114 1.953447 -0.000225 -0.136717 0.000001 -0.000000 0.000002 8.809908 0.502197 1.304064 0.949413 -0.205132 9.222688 4.863259 -0.000195 0.000000 0.378472 -0.168655 0.000217 2.765237 -0.000110 -0.000169 -0.000000 0.000001 -0.000003 2.005627 -0.000079 -0.000251 0.000001 0.000000 -0.000061 8.893784 0.378593 -0.793635 10.050604 0.072175 1.944823 4.537761 -0.000189 -0.000286 1.130934 -0.436594 0.000508 2.304516 -0.000071 -0.000283 0.000086 -0.000058 0.000002 1.923351 -0.000078 -0.000359 -0.000001 -0.000002 0.000001 8.882271 -0.316452 -2.489954 10.815199 -3.526974 17.873302 3.044096 -0.000106 -0.000003 -1.155833 0.473761 -3.119506 1.974494 -0.000124 -0.000001 -0.000001 0.000001 0.000001 1.666612 -0.000120 0.000007 -0.000000 -0.000000 -0.000004 -6.999447 14.255497 -0.017730 6.664968 10.733862 0.606110 -10.707271 0.000853 -0.000003 -4.121906 23.996666 62.823616 -27.305597 0.001077 -0.000008 -0.340277 33.598308 0.406056 -26.696983 0.001037 -0.000001 29.321070 2.858785 -4.597006 -4.348401 -0.793014 4.283811 -7.732100 12.903918 -26.841230 -2.512556 -0.535129 0.708340 -2.768264 4.487725 0.839412 -2.541580 0.000226 0.088817 0.000001 0.000000 0.000003 -2.665121 0.000178 0.093137 0.000001 0.000004 -0.000003 -8.821650 0.204385 3.472203 0.247990 0.101470 -10.431544 -4.225337 0.000145 0.000110 0.445367 0.068749 -0.000218 -2.652322 0.000217 0.092693 -0.000005 0.000000 -0.000102 -1.953458 0.000243 0.136654 0.000001 0.000002 -0.000003 -8.809749 0.502882 1.304834 1.147283 0.435147 -9.194879 -4.863247 0.000165 0.000125 0.483089 0.165876 -0.000298 -2.763543 0.000254 0.096582 0.000003 -0.000001 -0.000000 -2.000755 0.000261 0.139955 0.000002 -0.000001 -0.000001 -8.893815 0.379290 -0.792854 -6.868773 1.267023 -7.414526 -4.537764 0.000160 0.000116 1.312820 0.428150 -0.000543 -2.303119 0.000218 0.080502 -0.000091 0.000000 -0.000095 -1.918656 0.000223 0.134219 0.000003 -0.000002 0.000002 -8.882499 -0.315768 -2.489186 7.776868 1.570070 -19.434043 -3.047800 0.000136 0.000087 -1.162194 -0.476029 3.134311 -1.975703 0.000169 0.069059 0.000001 0.000000 0.000001 -1.664567 0.000276 0.116458 0.000001 0.000001 0.000000 0.000488 12.666683 -0.015757 -12.768921 -2.313241 4.849662 -3.551597 1.771410 1.022822 -0.000000 -0.000001 -0.000000 
7.246959 95.715843 43.559193 -171.405537 103.616210 165.147267 8.910001 -6.270001 0.000000 -27.680062 -2.377735 0.965736 5.198203 -44.464111 -3.164568 38.836100 7.684325 -4.325854 4.712271 -40.290302 -3.324794 -15.522542 -15.452938 2.560925 0.000002 -6.262320 12.954723 -7.196911 -0.048113 0.240464 -0.000003 -0.000001 7.999996 0.000001 -0.000001 -0.000001 -8.910000 -6.269986 -0.000008 -19.497972 26.423048 -5.894247 -0.684918 -44.661728 -4.353572 22.418054 1.099856 14.208802 -0.620998 -40.495686 -4.035116 -9.544915 -2.062820 11.181389 -0.001084 -6.262317 12.954748 -1.388857 0.119581 -1.295654 -0.000655 -0.000407 7.999992 -0.000000 -0.000000 -0.000000 0.000002 7.000009 -0.000010 13.493384 -0.246937 -0.842826 0.442230 -0.286851 -0.159271 0.444875 -0.236309 -0.179922 7.000559 14.254964 -0.017711 10.065660 -12.253043 0.165896 10.707258 -0.000273 -0.000008 -27.035280 -22.424674 -70.774516 27.305464 -0.001082 0.000004 0.197881 -19.565975 0.176741 26.697134 -0.001045 0.000018 35.931644 -2.966984 -8.860181 4.348765 -0.793354 4.283422 -21.027618 6.735934 23.416952 2.512544 -0.535334 0.708118 2.685222 4.478151 0.619024 2.543123 -0.000131 0.000009 -0.000002 0.000000 -0.000001 2.666734 -0.000104 -0.000017 -0.000000 0.000000 -0.000000 8.821998 0.203703 3.471421 -0.334700 0.145303 10.327415 4.225318 -0.000180 -0.000249 -0.047004 -0.098210 -0.000026 2.652317 -0.000212 -0.092775 0.000009 0.000001 0.000128 1.953435 -0.000226 -0.136707 0.000000 -0.000002 0.000000 8.809928 0.502178 1.304060 0.939923 -0.204736 9.133063 4.863248 -0.000180 0.000008 0.374754 -0.167113 0.000208 2.765241 -0.000106 -0.000175 -0.000000 -0.000002 0.000000 2.005629 -0.000080 -0.000255 -0.000001 -0.000001 0.000000 8.893785 0.378602 -0.793633 9.949695 0.047091 1.930622 4.537755 -0.000188 -0.000274 1.119758 -0.432850 0.000421 2.304533 -0.000097 -0.000296 0.000096 -0.000012 0.000002 1.923337 -0.000073 -0.000347 -0.000000 -0.000046 0.000000 8.882291 -0.316462 -2.489966 10.704680 -3.503416 17.697167 3.044103 -0.000136 -0.000003 -1.155845 0.473774 -3.119595 1.974489 -0.000106 -0.000010 -0.000001 -0.000001 -0.000001 1.666610 -0.000091 0.000004 0.000000 -0.000001 0.000000 -6.999445 14.255499 -0.017724 6.933661 9.880914 0.789160 -10.707260 0.000860 0.000011 -3.918316 22.627531 63.571344 -27.305603 0.001070 -0.000003 -0.322764 32.479469 0.386859 -26.696989 0.001047 -0.000011 29.737749 3.032318 -3.163918 -4.348404 -0.793025 4.283804 -7.664335 12.803605 -26.584502 -2.512541 -0.535075 0.708340 -2.740974 4.444349 0.830165 -2.541584 0.000216 0.088825 -0.000003 0.000000 -0.000001 -2.665129 0.000162 0.093143 0.000003 0.000000 0.000003 -8.821660 0.204380 3.472191 0.245653 0.098996 -10.330203 -4.225325 0.000149 0.000118 0.441003 0.068332 -0.000230 -2.652330 0.000223 0.092687 -0.000007 -0.000002 -0.000108 -1.953458 0.000251 0.136646 0.000006 0.000001 -0.000000 -8.809750 0.502848 1.304832 1.135956 0.430944 -9.105520 -4.863239 0.000193 0.000143 0.478351 0.164386 -0.000303 -2.763545 0.000226 0.096588 -0.000001 -0.000002 0.000003 -2.000752 0.000255 0.139964 -0.000001 0.000001 -0.000004 -8.893809 0.379251 -0.792857 -6.798500 1.228061 -7.348541 -4.537769 0.000174 0.000118 1.299908 0.424573 -0.000563 -2.303123 0.000192 0.080490 -0.000093 0.000002 -0.000075 -1.918644 0.000213 0.134235 -0.000001 -0.000003 -0.000002 -8.882491 -0.315797 -2.489192 7.700146 1.573517 -19.243481 -3.047807 0.000129 0.000083 -1.162305 -0.476064 3.134637 -1.975683 0.000183 0.069050 0.000002 0.000001 0.000003 -1.664565 0.000256 0.116454 -0.000000 -0.000001 -0.000004 0.000492 12.666681 -0.015749 -12.442634 -1.970221 4.571988 -3.462464 1.862330 1.010264 -0.000000 0.000001 0.000000 
7.574901 97.373383 43.427109 -172.031360 103.052091 166.364407 8.910005 -6.269993 0.000004 -23.546763 -1.630225 0.015872 5.198205 -44.464115 -3.164568 31.384600 6.312325 -3.004611 4.712271 -40.290314 -3.324798 -13.743409 -15.559067 0.788154 0.000009 -6.262317 12.954720 -10.115988 -0.076120 0.335959 0.000002 0.000000 7.999997 0.000000 0.000001 -0.000000 -8.910002 -6.269978 -0.000004 -16.878002 24.992282 -4.731309 -0.684905 -44.661736 -4.353562 19.848830 0.771058 11.620489 -0.620991 -40.495693 -4.035123 -9.257702 -1.539914 10.765445 -0.001084 -6.262319 12.954754 -2.400438 0.226637 -2.239089 -0.000665 -0.000406 7.999992 -0.000000 -0.000001 -0.000001 0.000004 7.000004 -0.000006 10.849408 -0.341457 -1.182868 0.619482 -0.468180 -0.048197 0.624984 -0.411982 -0.089475 7.000563 14.254977 -0.017721 10.148046 -10.746169 -0.564031 10.707262 -0.000289 -0.000017 -27.661580 -17.763577 -70.258235 27.305471 -0.001081 0.000006 0.087179 -16.865641 -0.134216 26.697153 -0.001040 -0.000011 36.237217 -2.117151 -8.014706 4.348730 -0.793356 4.283419 -20.818118 6.756345 23.167003 2.512565 -0.535317 0.708109 2.658176 4.432607 0.613800 2.543133 -0.000128 0.000003 -0.000004 -0.000001 -0.000002 2.666729 -0.000104 -0.000007 -0.000001 -0.000001 -0.000002 8.821981 0.203700 3.471420 -0.331350 0.142501 10.222640 4.225305 -0.000173 -0.000265 -0.046581 -0.097181 -0.000053 2.652306 -0.000200 -0.092779 0.000007 0.000001 0.000106 1.953430 -0.000218 -0.136708 0.000001 -0.000000 -0.000000 8.809909 0.502183 1.304051 0.930125 -0.204245 9.040425 4.863251 -0.000202 0.000004 0.370898 -0.165520 0.000218 2.765241 -0.000109 -0.000168 0.000000 -0.000001 0.000001 2.005636 -0.000062 -0.000238 0.000000 0.000000 0.000001 8.893777 0.378606 -0.793638 9.845644 0.022741 1.915582 4.537777 -0.000176 -0.000278 1.108209 -0.428964 0.000453 2.304532 -0.000097 -0.000290 0.000094 -0.000036 0.000001 1.923376 -0.000078 -0.000359 0.000000 0.000001 -0.000002 8.882277 -0.316477 -2.489976 10.590500 -3.479325 17.515136 3.044094 -0.000118 0.000004 -1.155805 0.473745 -3.119429 1.974511 -0.000141 -0.000008 0.000001 0.000000 -0.000003 1.666615 -0.000126 -0.000009 0.000001 0.000000 -0.000001 -6.999440 14.255500 -0.017722 7.184217 8.491328 1.075994 -10.707280 0.000852 -0.000002 -4.253442 20.881791 63.813850 -27.305597 0.001068 -0.000006 -0.293350 30.511917 0.354341 -26.696989 0.001051 -0.000010 30.618365 2.472027 -2.899344 -4.348390 -0.793017 4.283811 -7.594249 12.699364 -26.319019 -2.512547 -0.535120 0.708342 -2.712801 4.399491 0.820647 -2.541580 0.000227 0.088819 0.000003 -0.000001 -0.000003 -2.665122 0.000168 0.093151 0.000002 0.000000 0.000003 -8.821656 0.204387 3.472193 0.243246 0.096589 -10.225438 -4.225332 0.000148 0.000117 0.436499 0.067914 -0.000217 -2.652323 0.000218 0.092701 -0.000006 0.000002 -0.000103 -1.953449 0.000208 0.136646 -0.000004 0.000001 -0.000004 -8.809754 0.502859 1.304841 1.124228 0.426654 -9.013142 -4.863261 0.000175 0.000132 0.473455 0.162834 -0.000275 -2.763555 0.000242 0.096586 0.000001 -0.000001 0.000005 -2.000765 0.000252 0.139954 0.000001 -0.000001 -0.000002 -8.893803 0.379264 -0.792849 -6.726124 1.189378 -7.279946 -4.537777 0.000168 0.000109 1.286541 0.420862 -0.000582 -2.303128 0.000210 0.080487 -0.000090 0.000001 -0.000058 -1.918657 0.000224 0.134224 -0.000001 -0.000000 0.000004 -8.882500 -0.315780 -2.489184 7.620874 1.576188 -19.046541 -3.047787 0.000108 0.000087 -1.162267 -0.476071 3.134537 -1.975692 0.000160 0.069043 -0.000000 0.000000 -0.000003 -1.664571 0.000265 0.116449 0.000002 0.000001 -0.000004 0.000497 12.666673 -0.015746 -11.832546 -1.699703 4.237446 -3.403734 1.803824 0.902353 0.000000 -0.000001 -0.000000 
